<?xml version="1.0" standalone="no"?>
<!DOCTYPE svg PUBLIC "-//W3C//DTD SVG 20010904//EN"
 "http://www.w3.org/TR/2001/REC-SVG-20010904/DTD/svg10.dtd">
<svg version="1.0" xmlns="http://www.w3.org/2000/svg"
 width="500.000000pt" height="500.000000pt" viewBox="0 0 500.000000 500.000000"
 preserveAspectRatio="xMidYMid meet">

<g transform="translate(0.000000,500.000000) scale(0.100000,-0.100000)"
fill="#000000" stroke="none">
<path d="M2576 4430 c-24 -199 -20 -229 27 -230 14 0 17 9 17 51 l0 51 65 -7
c43 -5 65 -4 65 3 0 6 3 17 6 26 5 13 -2 16 -37 16 -75 0 -91 8 -87 44 l3 31
73 -2 c70 -2 72 -1 72 22 0 17 -6 25 -17 26 -10 0 -55 4 -100 7 l-81 7 -6 -45z"/>
<path d="M2816 4324 c-22 -87 -20 -111 10 -140 21 -21 33 -25 68 -22 26 2 48
-2 55 -9 20 -21 40 -15 47 15 3 15 12 49 20 76 19 69 18 93 -6 101 -29 9 -37
0 -45 -52 -10 -70 -20 -83 -61 -83 -50 0 -54 22 -22 149 2 8 -8 17 -24 21 -25
8 -27 6 -42 -56z"/>
<path d="M3126 4382 c-10 -16 -78 -216 -83 -243 -4 -21 0 -27 18 -32 13 -4 25
-5 26 -3 7 6 95 267 92 270 -12 10 -48 15 -53 8z"/>
<path d="M1915 4315 c-14 -16 -25 -21 -27 -14 -6 18 -48 1 -48 -19 1 -34 57
-177 71 -179 8 -2 21 1 29 6 12 9 12 16 -3 58 -23 65 -22 90 7 108 17 11 22
22 18 40 -6 32 -17 31 -47 0z"/>
<path d="M3217 4278 c-14 -35 -37 -92 -52 -127 -26 -62 -26 -65 -9 -78 25 -18
33 -16 44 10 98 234 101 240 88 248 -31 20 -46 8 -71 -53z"/>
<path d="M2241 4241 c-13 -24 8 -55 34 -50 28 6 42 34 26 53 -18 22 -48 20
-60 -3z"/>
<path d="M3336 4239 c-42 -33 -36 -78 19 -131 46 -44 56 -72 30 -82 -28 -10
-105 37 -105 64 0 14 -13 12 -36 -4 -18 -14 -18 -16 15 -50 63 -65 128 -82
175 -45 42 33 36 75 -19 129 -47 46 -56 74 -29 84 18 7 49 -7 84 -40 22 -20
27 -21 44 -8 19 14 19 14 -4 39 -27 29 -97 65 -127 65 -11 0 -32 -9 -47 -21z"/>
<path d="M1683 4231 c-23 -11 -46 -28 -52 -39 -17 -32 -13 -84 9 -119 21 -35
66 -50 118 -38 32 7 82 47 82 65 0 21 -30 22 -56 1 -28 -22 -60 -27 -83 -12
-11 7 3 18 55 43 38 18 71 34 72 35 10 5 -11 40 -32 55 -37 27 -68 30 -113 9z
m76 -45 c9 -11 1 -17 -39 -34 -44 -18 -50 -19 -50 -5 0 42 64 70 89 39z"/>
<path d="M1468 4115 c-15 -8 -32 -24 -38 -35 -6 -12 -15 -18 -19 -15 -5 3 -18
-3 -29 -13 -20 -17 -20 -18 57 -135 l78 -118 22 18 23 19 -21 35 -21 36 38 15
c51 20 78 73 62 122 -22 69 -96 103 -152 71z m77 -60 c14 -13 25 -33 25 -44 0
-54 -84 -69 -108 -19 -15 32 -2 74 25 81 31 8 33 8 58 -18z"/>
<path d="M3580 4109 c-7 -13 -17 -18 -27 -15 -24 10 -44 -12 -31 -33 8 -14 4
-26 -21 -61 -42 -58 -39 -95 9 -128 l35 -23 9 21 c8 17 6 24 -7 31 -25 14 -21
39 13 79 23 28 31 33 41 23 18 -18 36 -16 43 3 4 11 -1 22 -14 31 -18 13 -18
16 -6 36 13 20 12 24 -9 40 -23 17 -25 17 -35 -4z"/>
<path d="M3680 3953 c1 -10 15 -27 33 -38 21 -13 33 -30 35 -48 4 -34 -2 -34
-45 4 -69 60 -148 19 -112 -57 9 -18 26 -32 46 -39 19 -5 32 -15 30 -23 -1 -8
7 -20 19 -28 20 -14 24 -11 68 42 55 67 65 97 43 133 -31 54 -117 93 -117 54z
m28 -126 c9 -7 9 -13 1 -23 -16 -20 -43 -17 -64 6 -14 16 -15 22 -5 35 12 15
34 9 68 -18z"/>
<path d="M1235 3938 c-41 -32 -59 -81 -45 -124 26 -77 111 -99 174 -43 82 72
44 189 -62 189 -25 0 -49 -8 -67 -22z m100 -44 c10 -11 15 -29 13 -53 -2 -29
-8 -38 -30 -45 -53 -19 -102 59 -62 98 20 21 58 20 79 0z"/>
<path d="M1028 3845 c-16 -21 -15 -23 64 -96 131 -121 128 -119 152 -98 19 18
18 20 -68 101 -132 122 -128 120 -148 93z"/>
<path d="M3850 3783 c-40 -11 -60 -29 -75 -65 -14 -37 -14 -42 4 -83 29 -65
111 -102 111 -50 0 18 -5 25 -18 25 -51 0 -70 78 -26 106 35 23 75 9 89 -31
15 -46 39 -59 50 -26 8 26 -27 94 -57 108 -30 15 -59 21 -78 16z"/>
<path d="M992 3674 c-26 -18 -52 -65 -52 -94 0 -55 57 -110 114 -110 32 0 85
45 102 87 19 45 18 53 -11 53 -16 0 -25 -6 -25 -15 0 -29 -31 -65 -56 -65 -13
0 -24 2 -24 5 0 4 19 33 43 66 41 59 41 61 23 75 -26 19 -86 18 -114 -2z m61
-30 c13 -4 10 -14 -15 -49 -34 -48 -48 -50 -48 -5 0 18 8 34 22 44 26 18 22
18 41 10z"/>
<path d="M4049 3632 c-31 -20 -84 -55 -117 -76 -51 -33 -59 -42 -51 -57 13
-25 29 -33 42 -20 12 12 50 15 60 5 3 -3 -1 -24 -9 -46 -18 -52 -18 -61 5 -89
l19 -23 23 72 c20 63 26 72 44 68 11 -2 38 -8 60 -12 l39 -7 -15 23 c-19 29
-31 36 -93 52 l-48 13 70 45 c67 43 69 45 55 67 -9 13 -18 23 -22 22 -3 0 -31
-17 -62 -37z"/>
<path d="M870 3510 c-9 -17 -7 -26 12 -50 77 -98 80 -105 51 -96 -10 2 -44 7
-75 11 -51 6 -58 4 -68 -15 -6 -12 -10 -24 -8 -26 3 -2 40 -8 84 -14 43 -6 90
-12 104 -14 20 -4 29 2 41 23 16 28 16 29 -50 114 -36 47 -69 86 -73 86 -4 1
-12 -8 -18 -19z"/>
<path d="M4269 3307 c-15 -12 -63 -49 -108 -81 -82 -60 -85 -64 -75 -103 6
-22 11 -23 100 -23 52 0 94 -3 94 -7 -1 -5 -28 -28 -62 -53 -75 -55 -83 -67
-69 -102 l11 -28 140 0 c146 0 157 4 128 43 -10 13 -33 17 -111 19 l-98 3 81
59 c66 49 80 64 76 80 -3 12 -6 24 -6 29 0 4 -48 7 -106 7 l-107 0 53 38 c100
71 112 84 105 115 -9 32 -12 33 -46 4z"/>
<path d="M764 3261 c-65 -39 -70 -143 -10 -180 65 -40 135 -21 162 45 16 38
19 94 5 94 -23 0 -38 -13 -35 -28 6 -22 -32 -82 -51 -82 -20 0 -19 3 11 83 22
57 24 71 13 78 -23 14 -62 10 -95 -10z m39 -87 c-23 -52 -23 -52 -38 -31 -16
23 -9 53 18 72 31 22 40 3 20 -41z"/>
<path d="M643 3036 c-17 -8 -39 -29 -49 -48 -22 -43 -55 -171 -46 -179 4 -4
54 -16 112 -28 58 -11 114 -24 126 -27 19 -5 23 1 38 60 9 36 16 82 16 103 0
42 -28 96 -59 112 -35 19 -104 22 -138 7z m102 -60 c40 -17 50 -45 40 -112 -6
-41 -9 -45 -28 -40 -12 3 -50 11 -85 17 -34 6 -64 14 -66 18 -2 3 3 27 10 53
10 33 23 52 42 62 34 19 45 19 87 2z"/>
<path d="M4227 2820 c-36 -29 -51 -79 -37 -128 13 -48 32 -68 48 -49 9 10 8
22 0 45 -8 21 -9 40 -3 58 15 42 32 40 39 -5 3 -23 9 -59 12 -81 7 -45 15 -48
62 -20 60 37 67 118 16 172 -35 35 -97 39 -137 8z m104 -40 c23 -13 26 -72 4
-90 -20 -17 -21 -14 -30 48 -7 55 -5 58 26 42z"/>
<path d="M643 2605 c-42 -18 -56 -48 -51 -106 l5 -49 -43 0 c-42 0 -44 -1 -44
-30 l0 -30 145 0 145 0 0 24 c0 14 -4 27 -9 31 -6 3 -6 17 1 36 8 22 7 41 -1
69 -9 31 -19 41 -51 54 -48 19 -56 19 -97 1z m85 -61 c28 -20 30 -69 3 -84
-29 -15 -62 -12 -83 7 -24 21 -23 48 2 73 24 24 48 25 78 4z"/>
<path d="M4200 2561 c0 -17 5 -31 10 -31 7 0 7 -6 0 -19 -26 -50 -4 -122 45
-146 43 -20 63 -19 102 5 44 26 56 54 49 109 l-6 46 45 -3 c44 -4 45 -4 45 27
l0 31 -99 0 c-54 0 -119 3 -145 6 l-46 7 0 -32z m138 -47 c42 -29 18 -104 -34
-104 -21 0 -64 41 -64 62 0 14 47 58 62 58 8 0 24 -7 36 -16z"/>
<path d="M670 2343 c-30 -11 -60 -47 -66 -78 -15 -79 56 -148 133 -129 41 10
83 60 83 100 0 35 -30 104 -45 104 -18 0 -27 -28 -15 -50 15 -28 12 -67 -7
-86 -17 -16 -18 -15 -24 17 -4 19 -10 55 -14 82 -6 46 -13 52 -45 40z m25 -99
c7 -52 2 -63 -23 -48 -21 13 -28 60 -11 80 19 23 26 16 34 -32z"/>
<path d="M4169 2178 c-7 -24 -13 -76 -13 -117 -1 -71 0 -74 33 -102 61 -51
143 -48 193 8 15 16 70 183 63 191 -5 5 -179 50 -222 57 l-42 7 -12 -44z m144
-45 l69 -18 -6 -35 c-12 -73 -69 -114 -121 -89 -43 21 -59 56 -51 112 8 55 10
55 109 30z"/>
<path d="M628 2053 c-57 -4 -68 -12 -50 -40 5 -8 43 -13 106 -15 l99 -3 -72
-54 c-40 -29 -75 -59 -78 -66 -2 -8 1 -23 7 -36 12 -21 16 -21 106 -15 52 4
94 4 94 -1 0 -4 -34 -33 -75 -63 -66 -48 -74 -58 -69 -80 3 -14 7 -27 9 -29 9
-9 225 153 225 169 0 5 -5 21 -10 35 -10 26 -10 26 -105 23 -52 -2 -95 -1 -95
2 1 3 34 29 75 59 41 29 75 57 75 62 0 4 -5 20 -12 34 -11 24 -14 25 -92 23
-45 -1 -107 -3 -138 -5z"/>
<path d="M4121 1903 c-69 -36 -103 -172 -37 -147 10 4 16 18 16 39 0 34 25 65
53 65 14 0 15 -4 2 -39 -7 -21 -21 -53 -30 -71 -20 -39 -10 -50 47 -50 43 0
93 43 103 89 7 34 -18 96 -44 110 -37 20 -76 21 -110 4z m109 -98 c0 -21 -31
-55 -51 -55 -24 0 -24 0 3 55 20 41 24 44 35 29 7 -10 13 -23 13 -29z"/>
<path d="M3971 1652 c-6 -11 -11 -26 -11 -32 0 -13 119 -170 128 -170 4 0 12
8 18 18 10 15 4 28 -32 77 -24 32 -42 60 -40 62 2 2 36 0 75 -5 72 -8 72 -8
86 18 l14 27 -67 6 c-37 4 -88 10 -113 13 -41 6 -48 4 -58 -14z"/>
<path d="M1007 1619 c-7 -19 -17 -45 -20 -59 -13 -47 -20 -52 -68 -41 -69 16
-73 15 -50 -18 16 -22 33 -31 81 -40 33 -7 60 -14 60 -16 0 -2 -21 -17 -47
-34 -82 -52 -86 -56 -73 -81 7 -13 17 -19 26 -16 24 9 224 148 224 155 0 4 -6
16 -14 26 -12 17 -15 17 -35 3 -24 -17 -61 -13 -61 7 0 7 6 30 13 51 12 35 12
42 -4 68 l-18 29 -14 -34z"/>
<path d="M3885 1495 c-59 -29 -101 -125 -55 -125 11 0 20 6 20 14 0 25 41 66
66 66 13 0 24 -3 24 -6 0 -3 -21 -33 -47 -66 -44 -58 -45 -62 -28 -74 29 -21
98 -17 128 6 29 23 48 77 40 112 -7 30 -31 56 -65 74 -34 17 -45 17 -83 -1z
m103 -101 c5 -31 -20 -56 -52 -52 l-28 3 29 37 c30 40 46 43 51 12z"/>
<path d="M1128 1414 c-13 -12 5 -40 35 -54 42 -20 50 -70 15 -94 -45 -32 -90
-13 -90 38 0 16 -7 26 -22 30 -32 8 -41 -8 -27 -54 31 -104 177 -107 211 -5 9
28 8 41 -6 71 -23 49 -94 91 -116 68z"/>
<path d="M3732 1338 c-7 -7 -12 -17 -12 -24 0 -6 46 -55 102 -108 l102 -96 21
21 20 20 -104 100 c-58 54 -108 99 -111 99 -3 0 -11 -5 -18 -12z"/>
<path d="M1269 1217 c-54 -61 -63 -84 -50 -120 10 -27 84 -87 106 -87 7 0 15
9 18 19 3 14 -3 23 -25 32 -32 13 -52 43 -44 66 5 12 14 9 48 -16 48 -35 78
-39 101 -13 27 29 21 67 -14 96 -17 14 -36 26 -42 26 -7 0 -17 10 -22 22 -16
35 -27 31 -76 -25z m111 -42 c16 -19 6 -45 -18 -45 -23 0 -56 35 -47 49 9 16
51 13 65 -4z"/>
<path d="M3605 1208 c-48 -44 -55 -90 -23 -138 40 -59 107 -65 166 -15 79 66
32 185 -72 185 -27 0 -45 -8 -71 -32z m109 -40 c21 -29 20 -57 -1 -80 -20 -22
-42 -23 -69 0 -32 26 -35 48 -13 76 25 32 63 34 83 4z"/>
<path d="M3427 1165 c-18 -13 -18 -15 7 -52 l26 -38 -30 -6 c-64 -13 -97 -67
-80 -129 13 -48 55 -80 105 -80 30 0 44 7 71 35 18 19 34 31 36 25 2 -5 13 -1
26 8 l23 18 -38 59 c-22 33 -56 86 -76 118 -21 31 -41 57 -45 57 -4 0 -15 -7
-25 -15z m59 -143 c13 -8 34 -46 34 -61 0 -18 -39 -51 -60 -51 -25 0 -60 38
-60 66 0 41 52 69 86 46z"/>
<path d="M1468 1113 c-2 -10 5 -25 16 -34 18 -15 18 -16 -9 -60 -15 -24 -29
-45 -30 -47 -2 -2 -12 2 -24 10 -16 10 -23 10 -33 0 -9 -9 -7 -16 7 -32 15
-17 17 -25 8 -40 -10 -14 -8 -21 9 -36 19 -18 20 -18 37 2 9 11 22 19 29 16 7
-2 20 2 28 9 14 12 14 14 -2 26 -17 12 -17 14 4 36 31 33 51 88 42 113 -9 23
-47 54 -66 54 -7 0 -14 -8 -16 -17z"/>
<path d="M1595 1005 c-34 -33 -31 -51 15 -94 22 -20 40 -42 40 -49 0 -20 -37
-14 -67 12 -20 17 -34 22 -44 16 -28 -18 28 -69 91 -85 31 -8 80 27 80 56 0
11 -19 37 -41 58 -47 43 -46 66 1 49 17 -5 37 -20 45 -31 14 -20 16 -21 32 -3
17 17 17 19 -12 43 -30 25 -85 53 -105 53 -6 0 -22 -11 -35 -25z"/>
<path d="M3190 953 c-18 -7 -70 -54 -70 -64 0 -18 43 -16 61 2 14 14 31 19 57
17 20 -2 35 -7 33 -13 -2 -5 -34 -23 -72 -39 l-68 -30 15 -28 c18 -35 43 -48
90 -48 47 0 100 39 109 80 9 40 -10 95 -40 114 -24 15 -84 20 -115 9z m103
-121 c-15 -43 -58 -57 -83 -27 -10 12 -5 18 31 34 49 20 61 19 52 -7z"/>
<path d="M1793 932 c-3 -9 -17 -42 -31 -72 -13 -30 -35 -82 -48 -114 -22 -56
-23 -60 -6 -72 26 -20 34 -13 62 57 15 35 37 85 49 111 30 66 31 88 3 99 -18
7 -24 5 -29 -9z"/>
<path d="M1892 876 c-6 -17 -27 -78 -47 -135 -20 -57 -34 -105 -32 -107 2 -2
14 -5 27 -6 23 -3 28 6 67 117 54 152 53 147 22 155 -23 7 -28 4 -37 -24z"/>
<path d="M3033 888 c-20 -10 -20 -12 -6 -53 19 -58 14 -107 -13 -120 -17 -8
-19 -15 -13 -33 10 -27 21 -28 44 -2 11 12 22 17 29 11 6 -5 21 -5 33 0 21 8
22 10 8 51 -7 24 -21 69 -31 101 -18 61 -18 61 -51 45z"/>
<path d="M1991 833 c-19 -72 -31 -128 -31 -151 0 -20 4 -23 28 -20 24 3 28 8
39 62 12 61 23 76 59 76 41 0 49 -24 32 -98 -9 -37 -16 -67 -15 -68 1 -1 14
-4 28 -7 26 -7 27 -4 43 58 9 35 16 74 16 87 -1 46 -53 84 -102 74 -20 -4 -35
-1 -45 9 -24 25 -42 17 -52 -22z"/>
<path d="M2677 808 c-21 -11 -22 -54 -1 -62 25 -10 33 -7 44 13 19 36 -9 68
-43 49z"/>
<path d="M2368 758 l-3 -43 -65 -1 c-57 -1 -65 -4 -68 -21 -4 -24 20 -33 86
-33 44 0 49 -8 36 -55 -5 -19 -12 -20 -75 -17 -69 4 -69 4 -69 -22 0 -25 2
-26 54 -26 29 0 73 -3 98 -6 l45 -6 11 114 c17 162 17 158 -17 158 -28 0 -30
-3 -33 -42z"/>
</g>
</svg>
